<svg id="visual" viewBox="0 0 900 600" width="900" height="600" xmlns="http://www.w3.org/2000/svg" xmlns:xlink="http://www.w3.org/1999/xlink" version="1.1"><rect x="0" y="0" width="900" height="600" fill="#e5e7eb"></rect><path d="M355 0L350.8 25C346.7 50 338.3 100 347.5 150C356.7 200 383.3 250 393.3 300C403.3 350 396.7 400 375.2 450C353.7 500 317.3 550 299.2 575L281 600L0 600L0 575C0 550 0 500 0 450C0 400 0 350 0 300C0 250 0 200 0 150C0 100 0 50 0 25L0 0Z" fill="#1f2937" stroke-linecap="round" stroke-linejoin="miter"></path></svg>